# This file uses centimeters as units for non-parametric coordinates.

mtllib batterieCollectable.mtl
g default
v -1.058171 2.346792 1.058171
v 1.058171 2.346792 1.058171
v -1.058171 2.750761 1.058171
v 1.058171 2.750761 1.058171
v -1.058171 2.750761 -1.058171
v 1.058171 2.750761 -1.058171
v -1.058171 2.346792 -1.058171
v 1.058171 2.346792 -1.058171
v -1.428531 2.785602 0.000000
v 0.000000 2.311951 -1.428531
v 1.428531 2.311951 0.000000
v -1.428531 2.311951 0.000000
v 0.000000 2.311951 1.428531
v 0.000000 2.785602 1.428531
v 1.428531 2.785602 0.000000
v 0.000000 2.785602 -1.428531
v 0.000000 2.830398 0.000000
v 0.000000 2.267154 0.000000
vt 0.827914 0.475286
vt 0.820554 0.311209
vt 0.937159 0.312075
vt 0.927364 0.476025
vt 0.830349 0.147260
vt 0.929799 0.147999
vt 0.401733 0.089479
vt 0.462289 0.242308
vt 0.253341 0.251450
vt 0.244198 0.042502
vt 0.415313 0.399842
vt 0.262483 0.460399
vt 0.104949 0.413422
vt 0.044392 0.260592
vt 0.091369 0.103058
vt 0.814965 0.962422
vt 0.650889 0.969781
vt 0.651754 0.853176
vt 0.815704 0.862972
vt 0.486939 0.959986
vt 0.487678 0.860536
vt 0.416756 0.769801
vt 0.354503 0.617655
vt 0.563337 0.606188
vt 0.574804 0.815022
vt 0.399724 0.459608
vt 0.551870 0.397354
vt 0.709918 0.442575
vt 0.772171 0.594721
vt 0.726950 0.752768
vt 0.158913 0.957550
vt 0.159652 0.858100
vt 0.323728 0.850740
vt 0.322863 0.967346
vt 0.924928 0.804051
vt 0.825479 0.803312
vt 0.818119 0.639236
vt 0.934724 0.640101
vn -0.330350 0.000000 0.943858
vn -0.330350 0.000000 0.943858
vn -0.330350 0.000000 0.943858
vn -0.330350 0.000000 0.943858
vn 0.000000 -0.952958 0.303104
vn 0.360684 -0.860124 0.360684
vn 0.360683 0.860125 0.360683
vn 0.000000 0.952957 0.303104
vn -0.360683 0.860125 0.360683
vn 0.000000 0.952957 0.303104
vn 0.000000 1.000000 0.000000
vn -0.303104 0.952957 0.000000
vn 0.000000 0.952957 0.303104
vn 0.360683 0.860125 0.360683
vn 0.303104 0.952957 0.000000
vn 0.000000 1.000000 0.000000
vn 0.000000 1.000000 0.000000
vn 0.303104 0.952957 0.000000
vn 0.360683 0.860125 -0.360683
vn -0.000000 0.952957 -0.303104
vn -0.303104 0.952957 0.000000
vn 0.000000 1.000000 0.000000
vn -0.000000 0.952957 -0.303104
vn -0.360683 0.860125 -0.360683
vn -0.360683 0.860125 -0.360683
vn -0.000000 0.952957 -0.303104
vn 0.000000 -0.952958 -0.303104
vn -0.360684 -0.860124 -0.360684
vn -0.000000 0.952957 -0.303104
vn 0.360683 0.860125 -0.360683
vn 0.360684 -0.860124 -0.360684
vn 0.000000 -0.952958 -0.303104
vn -0.360684 -0.860124 -0.360684
vn 0.000000 -0.952958 -0.303104
vn 0.000000 -1.000000 0.000000
vn -0.303104 -0.952958 0.000000
vn 0.000000 -0.952958 -0.303104
vn 0.360684 -0.860124 -0.360684
vn 0.303104 -0.952958 0.000000
vn 0.000000 -1.000000 0.000000
vn 0.000000 -1.000000 0.000000
vn 0.303104 -0.952958 0.000000
vn 0.360684 -0.860124 0.360684
vn 0.000000 -0.952958 0.303104
vn -0.303104 -0.952958 0.000000
vn 0.000000 -1.000000 0.000000
vn 0.000000 -0.952958 0.303104
vn -0.360684 -0.860124 0.360684
vn 0.360683 0.860125 0.360683
vn 0.360684 -0.860124 0.360684
vn 0.303104 -0.952958 0.000000
vn 0.303104 0.952957 0.000000
vn 0.303104 -0.952958 0.000000
vn 0.360684 -0.860124 -0.360684
vn 0.360683 0.860125 -0.360683
vn 0.303104 0.952957 0.000000
vn -0.360683 0.860125 -0.360683
vn -0.360684 -0.860124 -0.360684
vn -0.303104 -0.952958 0.000000
vn -0.303104 0.952957 0.000000
vn -0.303104 -0.952958 0.000000
vn -0.360684 -0.860124 0.360684
vn -0.360683 0.860125 0.360683
vn -0.303104 0.952957 0.000000
s off
g BatterieCollectable
usemtl initialShadingGroup
f 1/1/1 13/2/2 14/3/3 3/4/4
f 13/2/5 2/5/6 4/6/7 14/3/8
f 3/7/9 14/8/10 17/9/11 9/10/12
f 14/8/13 4/11/14 15/12/15 17/9/16
f 17/9/17 15/12/18 6/13/19 16/14/20
f 9/10/21 17/9/22 16/14/23 5/15/24
f 5/16/25 16/17/26 10/18/27 7/19/28
f 16/17/29 6/20/30 8/21/31 10/18/32
f 7/22/33 10/23/34 18/24/35 12/25/36
f 10/23/37 8/26/38 11/27/39 18/24/40
f 18/24/41 11/27/42 2/28/43 13/29/44
f 12/25/45 18/24/46 13/29/47 1/30/48
f 4/31/49 2/32/50 11/33/51 15/34/52
f 11/33/53 8/21/54 6/20/55 15/34/56
f 5/35/57 7/36/58 12/37/59 9/38/60
f 12/37/61 1/1/62 3/4/63 9/38/64
