# This file uses centimeters as units for non-parametric coordinates.

mtllib Plank3.mtl
g default
v -4.000000 -0.125000 1.000000
v 4.000000 -0.125000 1.000000
v -4.000000 0.125000 1.000000
v 4.000000 0.125000 1.000000
v -3.825105 0.125000 -1.000000
v 4.000000 0.125000 -1.000000
v -3.825105 -0.125000 -1.000000
v 4.000000 -0.125000 -1.000000
v -3.931444 0.125000 -0.714286
v -3.931444 -0.125000 -0.714286
v 4.000000 -0.125000 -0.714286
v 4.000000 0.125000 -0.714286
v -4.000000 0.125000 -0.428571
v -4.000000 -0.125000 -0.428571
v 3.941619 -0.125000 -0.428571
v 3.941619 0.125000 -0.428571
v -3.890432 0.125000 -0.294741
v -3.890432 -0.125000 -0.294741
v 4.000000 -0.125000 -0.142857
v 4.000000 0.125000 -0.142857
v -4.076045 0.125000 0.142857
v -4.038833 -0.125000 0.142857
v 3.983927 -0.125000 0.322826
v 4.004859 0.125000 0.322826
v -4.147280 0.125000 0.428571
v -4.074069 -0.125000 0.428571
v 4.041664 -0.125000 0.428571
v 4.082845 0.125000 0.428571
v -4.057732 0.125000 0.714286
v -4.020519 -0.125000 0.714286
v 4.011542 -0.125000 0.714286
v 4.032474 0.125000 0.714286
v -4.004562 -0.125000 0.285714
v 3.774073 -0.125000 0.373128
v 3.805130 0.125000 0.373128
v -4.059774 0.125000 0.285714
v -4.047294 -0.125000 0.571429
v 3.962168 -0.125000 0.571429
v 3.993224 0.125000 0.571429
v -4.102506 0.125000 0.571429
v -4.028866 0.125000 0.857143
v 3.997827 0.125000 0.857143
v 3.987361 -0.125000 0.857143
v -4.010260 -0.125000 0.857143
v -4.028573 -0.125000 0.000000
v 4.027957 -0.125000 0.089985
v 4.038424 0.125000 0.089985
v -4.047179 0.125000 0.000000
v -3.950502 -0.125000 -0.217104
v 3.972843 -0.125000 -0.026436
v 3.978076 0.125000 -0.026436
v -3.959805 0.125000 -0.217104
v -4.061612 0.125000 0.071429
v 3.975364 0.125000 0.206406
v 3.959665 -0.125000 0.206406
v -4.033703 -0.125000 0.071429
v -3.871997 -0.125000 -0.857143
v 4.000000 -0.125000 -0.857143
v 4.000000 0.125000 -0.857143
v -3.871997 0.125000 -0.857143
v -0.019937 -0.125000 1.000000
v -0.019937 -0.125000 0.857143
v -0.019937 -0.125000 0.714286
v -0.019938 -0.125000 0.571429
v -0.019938 -0.125000 0.428571
v -0.019939 -0.125000 0.329421
v -0.019938 -0.125000 0.232842
v -0.019938 -0.125000 0.138917
v -0.019937 -0.125000 0.044992
v -0.019937 -0.125000 -0.121770
v -0.019937 -0.125000 -0.218799
v -0.019938 -0.125000 -0.428571
v -0.019937 -0.125000 -0.714286
v -0.019937 -0.125000 -0.857143
v -0.019937 -0.125000 -1.000000
v -0.019937 0.125000 -1.000000
v -0.019937 0.125000 -0.857143
v -0.019937 0.125000 -0.714286
v -0.019938 0.125000 -0.428571
v -0.019937 0.125000 -0.218799
v -0.019937 0.125000 -0.121770
v -0.019937 0.125000 0.044992
v -0.019938 0.125000 0.138917
v -0.019938 0.125000 0.232842
v -0.019939 0.125000 0.329421
v -0.019938 0.125000 0.428571
v -0.019938 0.125000 0.571429
v -0.019938 0.125000 0.714286
v -0.019938 0.125000 0.857143
v -0.019937 0.125000 1.000000
v -1.981189 -0.125000 1.000000
v -1.981189 -0.125000 0.857143
v -1.981189 -0.125000 0.714286
v -1.981189 -0.125000 0.571429
v -1.981189 -0.125000 0.428571
v -1.981189 -0.125000 0.307568
v -1.981189 -0.125000 0.187849
v -1.981189 -0.125000 0.105173
v -1.981189 -0.125000 0.022496
v -1.981189 -0.125000 -0.169437
v -1.981188 -0.125000 -0.256770
v -1.981189 -0.125000 -0.428571
v -1.981188 -0.125000 -0.714286
v -1.981188 -0.125000 -0.857143
v -1.981187 -0.125000 -1.000000
v -1.981187 0.125000 -1.000000
v -1.981188 0.125000 -0.857143
v -1.981188 0.125000 -0.714286
v -1.981189 0.125000 -0.428571
v -1.981188 0.125000 -0.256770
v -1.981189 0.125000 -0.169437
v -1.981189 0.125000 0.022496
v -1.981189 0.125000 0.105173
v -1.981189 0.125000 0.187849
v -1.981190 0.125000 0.307568
v -1.981190 0.125000 0.428571
v -1.981190 0.125000 0.571429
v -1.981189 0.125000 0.714286
v -1.981189 0.125000 0.857143
v -1.981189 0.125000 1.000000
v 1.936569 0.125000 -0.714286
v 1.936570 0.125000 -0.857143
v 1.936570 0.125000 -1.000000
v 1.936570 -0.125000 -1.000000
v 1.936570 -0.125000 -0.857143
v 1.936569 -0.125000 -0.714286
v 1.936569 -0.125000 -0.428571
v 1.936570 -0.125000 -0.180828
v 1.936569 -0.125000 -0.074103
v 1.936570 -0.125000 0.067488
v 1.936569 -0.125000 0.172661
v 1.936569 -0.125000 0.277834
v 1.936568 -0.125000 0.351275
v 1.936569 -0.125000 0.428571
v 1.936569 -0.125000 0.571429
v 1.936569 -0.125000 0.714286
v 1.936569 -0.125000 0.857143
v 1.936569 -0.125000 1.000000
v 1.936569 0.125000 1.000000
v 1.936569 0.125000 0.857143
v 1.936569 0.125000 0.714286
v 1.936569 0.125000 0.571429
v 1.936570 0.125000 0.428571
v 1.936568 0.125000 0.351275
v 1.936569 0.125000 0.277834
v 1.936569 0.125000 0.172661
v 1.936570 0.125000 0.067488
v 1.936569 0.125000 -0.074103
v 1.936570 0.125000 -0.180828
v 1.936569 0.125000 -0.428571
vt 0.336608 0.498512
vt 0.635400 0.488446
vt 0.635371 0.250721
vt 0.336594 0.260787
vt 0.371323 0.498510
vt 0.353965 0.498511
vt 0.353952 0.260786
vt 0.371310 0.260785
vt 0.248602 0.490551
vt 0.719489 0.488444
vt 0.719474 0.250719
vt 0.251359 0.728260
vt 0.022965 0.493167
vt 0.040322 0.492966
vt 0.043079 0.730675
vt 0.025722 0.730876
vt 0.353938 0.010333
vt 0.028612 0.980041
vt 0.046003 0.982777
vt 0.371295 0.006122
vt 0.904316 0.037167
vt 0.017342 0.008356
vt 0.933366 0.017643
vt 0.371351 0.989121
vt 0.562286 0.966543
vt 0.902245 0.242205
vt 0.902952 0.223418
vt 0.544928 0.973767
vt 0.213889 0.490953
vt 0.231245 0.490752
vt 0.234002 0.728461
vt 0.216645 0.728662
vt 0.544874 0.010058
vt 0.219553 0.979362
vt 0.236910 0.979161
vt 0.562232 0.010057
vt 0.562259 0.498499
vt 0.544902 0.498500
vt 0.544888 0.260775
vt 0.562246 0.260774
vt 0.173567 0.007791
vt 0.510213 0.982099
vt 0.179175 0.491356
vt 0.181932 0.729065
vt 0.510159 0.017154
vt 0.184758 0.972672
vt 0.510186 0.498502
vt 0.510172 0.260777
vt 0.157461 0.021292
vt 0.493951 0.968787
vt 0.153688 0.491651
vt 0.151832 0.729414
vt 0.475443 0.010062
vt 0.150127 0.980167
vt 0.484697 0.498503
vt 0.480070 0.260779
vt 0.458140 0.987834
vt 0.906270 0.126799
vt 0.112771 0.004401
vt 0.936887 0.117964
vt 0.110227 0.492155
vt 0.121639 0.492023
vt 0.121663 0.729764
vt 0.108884 0.729912
vt 0.433006 0.013058
vt 0.107635 0.975759
vt 0.121876 0.983892
vt 0.447151 0.005395
vt 0.452646 0.498505
vt 0.441233 0.498506
vt 0.437120 0.260781
vt 0.449899 0.260780
vt 0.423424 0.989367
vt 0.905501 0.091567
vt 0.907373 0.072354
vt 0.406067 1.000000
vt 0.075035 0.492563
vt 0.087082 0.492424
vt 0.087183 0.730163
vt 0.077792 0.730273
vt 0.406011 0.000000
vt 0.080759 0.986034
vt 0.087118 0.953445
vt 0.412749 0.033743
vt 0.418086 0.498507
vt 0.406039 0.498508
vt 0.406025 0.260783
vt 0.415417 0.260783
vt 0.388709 0.994561
vt 0.905879 0.054757
vt 0.057678 0.492765
vt 0.060435 0.730474
vt 0.063290 0.976577
vt 0.388654 0.010890
vt 0.388681 0.498509
vt 0.388668 0.260784
vt 0.098816 0.492288
vt 0.096106 0.730060
vt 0.093525 0.978871
vt 0.418860 0.009475
vt 0.429821 0.498507
vt 0.424341 0.260782
vt 0.906353 0.109397
vt 0.440782 0.991343
vt 0.635339 0.000004
vt 0.336580 0.010070
vt 0.901568 0.002470
vt 0.336635 0.982109
vt 0.141900 0.491788
vt 0.138865 0.729564
vt 0.135944 0.977032
vt 0.461297 0.012727
vt 0.472908 0.498504
vt 0.467103 0.260780
vt 0.484519 0.977217
vt 0.905531 0.154822
vt 0.254267 0.978959
vt 0.719458 0.000002
vt 0.243240 0.028235
vt 0.931914 0.261603
vt 0.635431 0.726748
vt 0.020201 0.254882
vt 0.037558 0.254681
vt 0.054915 0.254479
vt 0.072271 0.254278
vt 0.086973 0.254107
vt 0.101518 0.253939
vt 0.111563 0.253822
vt 0.121608 0.253706
vt 0.144927 0.253435
vt 0.155538 0.253312
vt 0.176411 0.253070
vt 0.211125 0.252668
vt 0.228481 0.252466
vt 0.749881 0.726743
vt 0.579631 0.736800
vt 0.562273 0.736801
vt 0.544915 0.736802
vt 0.510199 0.736804
vt 0.489325 0.736805
vt 0.478713 0.736805
vt 0.455392 0.736807
vt 0.445347 0.736807
vt 0.435301 0.736808
vt 0.420755 0.736809
vt 0.406052 0.736810
vt 0.388694 0.736811
vt 0.371337 0.736811
vt 0.353979 0.736812
vt 0.665807 0.726744
vt 0.665747 0.250717
vt 0.821779 -0.000000
vt 0.665715 0.000000
vt 0.008366 0.731078
vt 0.852141 0.000904
vt 0.011273 0.981778
vt 0.749850 0.250717
vt 0.848794 0.299586
vt 0.749834 0.000000
vt 0.579604 0.260773
vt 0.818421 0.299102
vt 0.579590 0.010056
vt 0.336621 0.736813
vt 0.665777 0.488442
vt 0.719504 0.726745
vt 0.579617 0.498498
vt 0.245838 0.252265
vt 0.749866 0.488442
vt 0.002845 0.255083
vt 0.005608 0.493369
vt 0.932600 0.243346
vt 0.719519 0.950790
vt 0.579643 0.960845
vt 0.818698 0.281747
vt 0.849070 0.282231
vt 0.849347 0.264875
vt 0.225817 0.022739
vt 0.208377 0.015718
vt 0.906322 0.118098
vt 0.104085 0.003878
vt 0.851450 0.147459
vt 0.851420 0.133009
vt 0.821016 0.147134
vt 0.820360 0.163208
vt 0.449461 0.989589
vt 0.936731 0.126817
vt 0.935926 0.155241
vt 0.935438 0.167882
vt 0.820333 0.179142
vt 0.820104 0.193534
vt 0.850714 0.179495
vt 0.850756 0.163844
vt 0.147944 0.014103
vt 0.121456 0.004924
vt 0.902983 0.019815
vt 0.635462 0.972043
vt 0.000000 0.009804
vt 0.851650 0.018322
vt 0.821262 0.017352
vt 0.820491 0.035197
vt 0.353993 0.985615
vt 0.934969 0.035279
vt 0.936956 0.053360
vt 0.939011 0.071434
vt 0.820465 0.053198
vt 0.818383 0.073582
vt 0.851056 0.054279
vt 0.850965 0.035914
vt 0.052003 0.003454
vt 0.034684 0.006909
vt 0.936610 0.091648
vt 0.937063 0.109112
vt 0.823348 0.107632
vt 0.820941 0.132542
vt 0.853949 0.106911
vt 0.849165 0.074053
vt 0.086777 0.008243
vt 0.069322 0.000000
vt 0.819539 0.228963
vt 0.850476 0.194018
vt 0.905083 0.166741
vt 0.934648 0.188883
vt 0.818975 0.264391
vt 0.849912 0.229447
vt 0.904293 0.187742
vt 0.933307 0.224559
vt 0.749895 0.950788
vt 0.901559 0.260461
vt 0.665838 0.972039
vt 0.931843 -0.000000
vn 0.000000 0.000000 1.000000
vn 0.000000 0.000000 1.000000
vn 0.000000 0.000000 1.000000
vn 0.000000 0.000000 1.000000
vn 0.000000 1.000000 -0.000000
vn 0.000000 1.000000 0.000000
vn 0.000000 1.000000 -0.000000
vn 0.000000 1.000000 0.000000
vn 0.000000 0.000000 -1.000000
vn 0.000000 0.000000 -1.000000
vn 0.000000 0.000000 -1.000000
vn 0.000000 0.000000 -1.000000
vn 0.000000 -1.000000 0.000000
vn 0.000000 -1.000000 0.000000
vn 0.000000 -1.000000 -0.000000
vn 0.000000 -1.000000 -0.000000
vn 0.996148 -0.041764 0.077108
vn 0.996190 -0.041683 0.076600
vn 0.995135 -0.083067 -0.052965
vn 0.995211 -0.082971 -0.051691
vn -0.971702 -0.143619 0.187534
vn -0.988080 -0.073413 0.135307
vn -0.988046 -0.073879 0.135302
vn -0.971171 -0.144794 0.189374
vn -0.937194 0.000000 -0.348809
vn -0.937194 0.000000 -0.348809
vn -0.958175 0.000000 -0.286182
vn -0.958175 0.000000 -0.286182
vn 0.000000 -1.000000 0.000000
vn 0.000000 -1.000000 0.000000
vn 0.000000 -1.000000 0.000000
vn 0.000000 -1.000000 0.000000
vn 0.990849 0.000000 0.134976
vn 0.990849 0.000000 0.134976
vn 1.000000 0.000000 0.000000
vn 1.000000 0.000000 0.000000
vn 0.000000 1.000000 -0.000000
vn 0.000000 1.000000 -0.000000
vn 0.000000 1.000000 -0.000000
vn 0.000000 1.000000 -0.000000
vn -0.995256 0.000000 0.097290
vn -0.995256 0.000000 0.097290
vn 0.000000 -1.000000 0.000000
vn 0.000000 -1.000000 0.000000
vn 1.000000 0.000000 0.000000
vn 1.000000 0.000000 0.000000
vn 0.000000 1.000000 0.000000
vn 0.000000 1.000000 -0.000000
vn -0.978222 -0.006682 0.207455
vn -0.978222 -0.006682 0.207455
vn 0.000000 -1.000000 0.000000
vn 0.000000 -1.000000 -0.000000
vn 0.996473 -0.003019 -0.083856
vn 0.996473 -0.003019 -0.083856
vn 0.000000 1.000000 0.000000
vn 0.000000 1.000000 -0.000000
vn -0.950767 -0.062009 -0.303639
vn -0.950204 -0.061666 -0.305466
vn -0.984759 -0.109843 -0.134852
vn -0.984721 -0.110188 -0.134847
vn 0.000000 -1.000000 0.000000
vn 0.000000 -1.000000 0.000000
vn 0.000000 -1.000000 -0.000000
vn 0.000000 -1.000000 -0.000000
vn 0.984228 -0.061760 0.165773
vn 0.984894 -0.061911 0.161716
vn 0.998526 -0.041814 0.034616
vn 0.998549 -0.041802 0.033959
vn 0.000000 1.000000 0.000000
vn 0.000000 1.000000 0.000000
vn 0.000000 1.000000 -0.000000
vn 0.000000 1.000000 0.000000
vn -0.958852 -0.212692 -0.188054
vn -0.961676 -0.211874 -0.174035
vn -0.957392 -0.245902 -0.151439
vn -0.959670 -0.246487 -0.135194
vn 0.000000 -1.000000 0.000000
vn 0.000000 -1.000000 -0.000000
vn 0.000000 -1.000000 -0.000000
vn 0.000000 -1.000000 0.000000
vn 0.741685 -0.107155 -0.662134
vn 0.702717 -0.101525 -0.704189
vn 0.837459 -0.104855 -0.536346
vn 0.836294 -0.104721 -0.538188
vn 0.000000 1.000000 0.000000
vn 0.000000 1.000000 0.000000
vn 0.000000 1.000000 -0.000000
vn 0.000000 1.000000 0.000000
vn -0.948245 -0.210820 0.237460
vn -0.948696 -0.208653 0.237573
vn 0.000000 -1.000000 0.000000
vn 0.000000 -1.000000 -0.000000
vn 0.983219 -0.122012 0.135625
vn 0.982170 -0.122213 0.142847
vn 0.000000 1.000000 0.000000
vn 0.000000 1.000000 0.000000
vn 0.000000 -1.000000 0.000000
vn 0.000000 -1.000000 -0.000000
vn 0.670523 -0.055511 0.739809
vn 0.694981 -0.057179 0.716751
vn 0.000000 1.000000 -0.000000
vn 0.000000 1.000000 -0.000000
vn -0.983799 -0.164125 0.072134
vn -0.983845 -0.164051 0.071668
vn 0.000000 1.000000 0.000000
vn 0.000000 1.000000 -0.000000
vn 0.998441 -0.020901 -0.051759
vn 0.998441 -0.020901 -0.051759
vn 0.000000 -1.000000 0.000000
vn 0.000000 -1.000000 -0.000000
vn -0.990081 -0.036843 0.135581
vn -0.990081 -0.036843 0.135581
vn 0.000000 -1.000000 0.000000
vn 0.000000 -1.000000 0.000000
vn 0.989846 -0.020706 -0.140629
vn 0.989690 -0.020735 -0.141715
vn 0.000000 1.000000 0.000000
vn 0.000000 1.000000 0.000000
vn -0.894344 -0.041313 -0.445468
vn -0.892879 -0.040942 -0.448432
vn 0.000000 -1.000000 0.000000
vn 0.000000 -1.000000 0.000000
vn 1.000000 0.000000 0.000000
vn 1.000000 0.000000 0.000000
vn 0.000000 1.000000 0.000000
vn 0.000000 1.000000 0.000000
vn -0.950126 0.000000 -0.311868
vn -0.950126 0.000000 -0.311868
vn 0.000000 -1.000000 0.000000
vn 0.000000 -1.000000 0.000000
vn 0.000000 -1.000000 0.000000
vn 0.000000 -1.000000 0.000000
vn 0.000000 -1.000000 -0.000000
vn 0.000000 -1.000000 -0.000000
vn 0.000000 -1.000000 -0.000000
vn 0.000000 -1.000000 0.000000
vn 0.000000 -1.000000 0.000000
vn 0.000000 -1.000000 0.000000
vn 0.000000 -1.000000 0.000000
vn 0.000000 -1.000000 0.000000
vn 0.000000 -1.000000 0.000000
vn 0.000000 -1.000000 0.000000
vn 0.000000 -1.000000 0.000000
vn 0.000000 0.000000 -1.000000
vn 0.000000 0.000000 -1.000000
vn 0.000000 1.000000 0.000000
vn 0.000000 1.000000 0.000000
vn 0.000000 1.000000 0.000000
vn 0.000000 1.000000 0.000000
vn 0.000000 1.000000 0.000000
vn 0.000000 1.000000 0.000000
vn 0.000000 1.000000 -0.000000
vn 0.000000 1.000000 -0.000000
vn 0.000000 1.000000 0.000000
vn 0.000000 1.000000 -0.000000
vn 0.000000 1.000000 0.000000
vn 0.000000 1.000000 -0.000000
vn 0.000000 1.000000 0.000000
vn 0.000000 1.000000 0.000000
vn 0.000000 1.000000 0.000000
vn 0.000000 0.000000 1.000000
vn 0.000000 0.000000 1.000000
vn 0.000000 -1.000000 0.000000
vn 0.000000 -1.000000 0.000000
vn 0.000000 -1.000000 0.000000
vn 0.000000 -1.000000 0.000000
vn 0.000000 -1.000000 0.000000
vn 0.000000 -1.000000 -0.000000
vn 0.000000 -1.000000 -0.000000
vn 0.000000 -1.000000 0.000000
vn 0.000000 -1.000000 0.000000
vn 0.000000 -1.000000 0.000000
vn 0.000000 -1.000000 0.000000
vn 0.000000 -1.000000 0.000000
vn 0.000000 -1.000000 0.000000
vn 0.000000 -1.000000 0.000000
vn 0.000000 -1.000000 0.000000
vn 0.000000 0.000000 -1.000000
vn 0.000000 0.000000 -1.000000
vn 0.000000 1.000000 0.000000
vn 0.000000 1.000000 0.000000
vn 0.000000 1.000000 0.000000
vn 0.000000 1.000000 0.000000
vn 0.000000 1.000000 0.000000
vn 0.000000 1.000000 0.000000
vn 0.000000 1.000000 -0.000000
vn 0.000000 1.000000 -0.000000
vn 0.000000 1.000000 0.000000
vn 0.000000 1.000000 0.000000
vn 0.000000 1.000000 0.000000
vn 0.000000 1.000000 0.000000
vn 0.000000 1.000000 0.000000
vn 0.000000 1.000000 0.000000
vn 0.000000 1.000000 0.000000
vn 0.000000 0.000000 1.000000
vn 0.000000 0.000000 1.000000
vn 0.000000 1.000000 0.000000
vn 0.000000 1.000000 0.000000
vn 0.000000 1.000000 0.000000
vn 0.000000 0.000000 -1.000000
vn 0.000000 0.000000 -1.000000
vn 0.000000 -1.000000 0.000000
vn 0.000000 -1.000000 0.000000
vn 0.000000 -1.000000 0.000000
vn 0.000000 -1.000000 0.000000
vn 0.000000 -1.000000 -0.000000
vn 0.000000 -1.000000 0.000000
vn 0.000000 -1.000000 -0.000000
vn 0.000000 -1.000000 -0.000000
vn 0.000000 -1.000000 -0.000000
vn 0.000000 -1.000000 -0.000000
vn 0.000000 -1.000000 0.000000
vn 0.000000 -1.000000 -0.000000
vn 0.000000 -1.000000 -0.000000
vn 0.000000 -1.000000 -0.000000
vn 0.000000 -1.000000 -0.000000
vn 0.000000 0.000000 1.000000
vn 0.000000 0.000000 1.000000
vn 0.000000 1.000000 -0.000000
vn 0.000000 1.000000 -0.000000
vn 0.000000 1.000000 0.000000
vn 0.000000 1.000000 -0.000000
vn 0.000000 1.000000 -0.000000
vn 0.000000 1.000000 0.000000
vn 0.000000 1.000000 0.000000
vn 0.000000 1.000000 -0.000000
vn 0.000000 1.000000 -0.000000
vn 0.000000 1.000000 0.000000
vn 0.000000 1.000000 -0.000000
vn 0.000000 1.000000 -0.000000
s 1
g Plank3
usemtl initialShadingGroup
f 90/164/1 61/2/2 138/3/3 139/151/4
s 2
f 88/5/5 89/6/6 140/7/7 141/8/8
s 3
f 75/168/9 76/10/10 123/11/11 124/157/12
s 4
f 62/13/13 63/14/14 136/15/15 137/16/16
s 5
f 42/199/17 43/198/18 31/208/19 32/200/20
s 6
f 30/21/21 44/195/22 41/23/23 29/202/24
f 60/171/25 57/26/26 10/27/27 9/226/28
s 4
f 73/29/29 74/30/30 125/31/31 126/32/32
s 5
f 12/223/33 11/176/34 58/175/35 59/174/36
s 2
f 77/37/37 78/38/38 121/39/39 122/40/40
s 6
f 10/27/27 14/225/41 13/222/42 9/226/28
s 4
f 72/43/43 73/29/29 126/32/32 127/44/44
s 5
f 16/219/45 15/224/46 11/176/34 12/223/33
s 2
f 78/38/38 79/47/47 150/48/48 121/39/39
s 6
f 14/225/41 18/221/49 17/188/50 13/222/42
s 4
f 71/51/51 72/43/43 127/44/44 128/52/52
s 5
f 20/190/53 19/220/54 15/224/46 16/219/45
s 2
f 79/47/47 80/55/55 149/56/56 150/48/48
s 6
f 48/186/57 45/58/58 56/179/59 53/60/60
s 4
f 68/61/61 69/62/62 130/63/63 131/64/64
s 5
f 54/183/65 55/181/66 46/192/67 47/184/68
s 2
f 82/69/69 83/70/70 146/71/71 147/72/72
s 6
f 36/211/73 33/74/74 26/75/75 25/204/76
s 4
f 65/77/77 66/78/78 133/79/79 134/80/80
s 5
f 28/206/81 27/216/82 34/215/83 35/213/84
s 2
f 85/85/85 86/86/86 143/87/87 144/88/88
s 6
f 40/203/89 37/90/90 30/21/21 29/202/24
s 4
f 63/14/14 64/91/91 135/92/92 136/15/15
s 5
f 32/200/20 31/208/19 38/207/93 39/205/94
s 2
f 87/95/95 88/5/5 141/8/8 142/96/96
s 4
f 66/78/78 67/97/97 132/98/98 133/79/79
s 5
f 35/213/84 34/215/83 23/182/99 24/214/100
s 2
f 84/101/101 85/85/85 144/88/88 145/102/102
s 6
f 22/103/103 33/74/74 36/211/73 21/212/104
s 4
f 64/91/91 65/77/77 134/80/80 135/92/92
s 5
f 39/205/94 38/207/93 27/216/82 28/206/81
s 2
f 86/86/86 87/95/95 142/96/96 143/87/87
s 6
f 26/75/75 37/90/90 40/203/89 25/204/76
s 2
f 89/6/6 90/1/105 139/4/106 140/7/7
s 5
f 2/155/107 43/198/18 42/199/17 4/152/108
s 4
f 61/170/109 62/13/13 137/16/16 138/154/110
s 6
f 41/23/23 44/195/22 1/107/111 3/230/112
s 4
f 69/62/62 70/109/113 129/110/114 130/63/63
s 5
f 47/184/68 46/192/67 50/191/115 51/189/116
s 2
f 81/113/117 82/69/69 147/72/72 148/114/118
s 6
f 52/187/119 49/116/120 45/58/58 48/186/57
s 4
f 70/109/113 71/51/51 128/52/52 129/110/114
s 5
f 51/189/116 50/191/115 19/220/54 20/190/53
s 2
f 80/55/55 81/113/117 148/114/118 149/56/56
s 6
f 18/221/49 49/116/120 52/187/119 17/188/50
s 2
f 83/70/70 84/101/101 145/102/102 146/71/71
s 5
f 24/214/100 23/182/99 55/181/66 54/183/65
s 4
f 67/97/97 68/61/61 131/64/64 132/98/98
s 6
f 53/60/60 56/179/59 22/103/103 21/212/104
s 4
f 74/30/30 75/9/121 124/12/122 125/31/31
s 5
f 59/174/36 58/175/35 8/158/123 6/161/124
s 2
f 76/166/125 77/37/37 122/40/40 123/160/126
s 6
f 7/228/127 57/26/26 60/171/25 5/120/128
s 4
f 91/169/129 92/122/130 62/13/13 61/170/109
f 92/122/130 93/123/131 63/14/14 62/13/13
f 93/123/131 94/124/132 64/91/91 63/14/14
f 94/124/132 95/125/133 65/77/77 64/91/91
f 95/125/133 96/126/134 66/78/78 65/77/77
f 96/126/134 97/127/135 67/97/97 66/78/78
f 97/127/135 98/128/136 68/61/61 67/97/97
f 98/128/136 99/129/137 69/62/62 68/61/61
f 99/129/137 100/130/138 70/109/113 69/62/62
f 100/130/138 101/131/139 71/51/51 70/109/113
f 101/131/139 102/132/140 72/43/43 71/51/51
f 102/132/140 103/133/141 73/29/29 72/43/43
f 103/133/141 104/134/142 74/30/30 73/29/29
f 104/134/142 105/167/143 75/9/121 74/30/30
s 3
f 105/135/144 106/165/145 76/10/10 75/168/9
s 2
f 106/136/146 107/137/147 77/37/37 76/166/125
f 107/137/147 108/138/148 78/38/38 77/37/37
f 108/138/148 109/139/149 79/47/47 78/38/38
f 109/139/149 110/140/150 80/55/55 79/47/47
f 110/140/150 111/141/151 81/113/117 80/55/55
f 111/141/151 112/142/152 82/69/69 81/113/117
f 112/142/152 113/143/153 83/70/70 82/69/69
f 113/143/153 114/144/154 84/101/101 83/70/70
f 114/144/154 115/145/155 85/85/85 84/101/101
f 115/145/155 116/146/156 86/86/86 85/85/85
f 116/146/156 117/147/157 87/95/95 86/86/86
f 117/147/157 118/148/158 88/5/5 87/95/95
f 118/148/158 119/149/159 89/6/6 88/5/5
f 119/149/159 120/163/160 90/1/105 89/6/6
s 1
f 120/150/161 91/121/162 61/2/2 90/164/1
s 4
f 44/22/163 92/122/130 91/169/129 1/197/164
f 30/210/165 93/123/131 92/122/130 44/22/163
f 37/209/166 94/124/132 93/123/131 30/210/165
f 26/218/167 95/125/133 94/124/132 37/209/166
f 33/217/168 96/126/134 95/125/133 26/218/167
f 22/180/169 97/127/135 96/126/134 33/217/168
f 56/59/170 98/128/136 97/127/135 22/180/169
f 45/194/171 99/129/137 98/128/136 56/59/170
f 49/193/172 100/130/138 99/129/137 45/194/171
f 18/49/173 101/131/139 100/130/138 49/193/172
f 14/41/174 102/132/140 101/131/139 18/49/173
f 10/178/175 103/133/141 102/132/140 14/41/174
f 57/177/176 104/134/142 103/133/141 10/178/175
f 7/119/177 105/167/143 104/134/142 57/177/176
s 3
f 5/172/178 106/165/145 105/135/144 7/227/179
s 2
f 60/25/180 107/137/147 106/136/146 5/173/181
f 9/28/182 108/138/148 107/137/147 60/25/180
f 13/42/183 109/139/149 108/138/148 9/28/182
f 17/50/184 110/140/150 109/139/149 13/42/183
f 52/115/185 111/141/151 110/140/150 17/50/184
f 48/57/186 112/142/152 111/141/151 52/115/185
f 53/185/187 113/143/153 112/142/152 48/57/186
f 21/104/188 114/144/154 113/143/153 53/185/187
f 36/73/189 115/145/155 114/144/154 21/104/188
f 25/76/190 116/146/156 115/145/155 36/73/189
f 40/89/191 117/147/157 116/146/156 25/76/190
f 29/24/192 118/148/158 117/147/157 40/89/191
f 41/201/193 119/149/159 118/148/158 29/24/192
f 3/108/194 120/163/160 119/149/159 41/201/193
s 1
f 1/196/195 91/121/162 120/150/161 3/229/196
s 2
f 122/40/40 121/39/39 12/33/197 59/36/198
f 123/160/126 122/40/40 59/36/198 6/162/199
s 3
f 124/157/12 123/11/11 6/118/200 8/159/201
s 4
f 125/31/31 124/12/122 8/117/202 58/35/203
f 126/32/32 125/31/31 58/35/203 11/34/204
f 127/44/44 126/32/32 11/34/204 15/46/205
f 128/52/52 127/44/44 15/46/205 19/54/206
f 129/110/114 128/52/52 19/54/206 50/111/207
f 130/63/63 129/110/114 50/111/207 46/67/208
f 131/64/64 130/63/63 46/67/208 55/66/209
f 132/98/98 131/64/64 55/66/209 23/99/210
f 133/79/79 132/98/98 23/99/210 34/83/211
f 134/80/80 133/79/79 34/83/211 27/82/212
f 135/92/92 134/80/80 27/82/212 38/93/213
f 136/15/15 135/92/92 38/93/213 31/19/214
f 137/16/16 136/15/15 31/19/214 43/18/215
f 138/154/110 137/16/16 43/18/215 2/156/216
s 1
f 139/151/4 138/3/3 2/105/217 4/153/218
s 2
f 140/7/7 139/4/106 4/106/219 42/17/220
f 141/8/8 140/7/7 42/17/220 32/20/221
f 142/96/96 141/8/8 32/20/221 39/94/222
f 143/87/87 142/96/96 39/94/222 28/81/223
f 144/88/88 143/87/87 28/81/223 35/84/224
f 145/102/102 144/88/88 35/84/224 24/100/225
f 146/71/71 145/102/102 24/100/225 54/65/226
f 147/72/72 146/71/71 54/65/226 47/68/227
f 148/114/118 147/72/72 47/68/227 51/112/228
f 149/56/56 148/114/118 51/112/228 20/53/229
f 150/48/48 149/56/56 20/53/229 16/45/230
f 121/39/39 150/48/48 16/45/230 12/33/197
